<?xml version="1.0" encoding="UTF-8" standalone="no"?>
<!-- Created with Inkscape (http://www.inkscape.org/) -->

<svg
   width="210mm"
   height="297mm"
   viewBox="0 0 210 297"
   version="1.1"
   id="svg1"
   xml:space="preserve"
   inkscape:version="1.4.2 (f4327f4, 2025-05-13)"
   sodipodi:docname="drawing-1.svg"
   xmlns:inkscape="http://www.inkscape.org/namespaces/inkscape"
   xmlns:sodipodi="http://sodipodi.sourceforge.net/DTD/sodipodi-0.dtd"
   xmlns="http://www.w3.org/2000/svg"
   xmlns:svg="http://www.w3.org/2000/svg"><sodipodi:namedview
     id="namedview1"
     pagecolor="#ffffff"
     bordercolor="#000000"
     borderopacity="0.25"
     inkscape:showpageshadow="2"
     inkscape:pageopacity="0.0"
     inkscape:pagecheckerboard="0"
     inkscape:deskcolor="#d1d1d1"
     inkscape:document-units="mm"
     showguides="false"
     inkscape:zoom="1.0167041"
     inkscape:cx="164.74804"
     inkscape:cy="299.49717"
     inkscape:window-width="1920"
     inkscape:window-height="1009"
     inkscape:window-x="1912"
     inkscape:window-y="-8"
     inkscape:window-maximized="1"
     inkscape:current-layer="g29" /><defs
     id="defs1" /><g
     inkscape:label="Layer 1"
     inkscape:groupmode="layer"
     id="layer1"><g
       id="g29"><path
         style="font-variation-settings:'wght' 700;opacity:1;fill:none;fill-opacity:1;stroke:#1a2e4a;stroke-width:0.499999;stroke-linecap:round;stroke-linejoin:round;stroke-dasharray:none;stroke-opacity:1"
         d="m 45.181829,92.704511 c 0.182717,1.664165 0.849664,4.216094 1.920221,5.005135"
         id="path29"
         sodipodi:nodetypes="cc" /><path
         style="font-variation-settings:'wght' 700;fill:#1a2e4a;fill-opacity:1;stroke-width:0.2;stroke-linecap:round;stroke-linejoin:round"
         d="m 185.87098,89.972862 c 1.37244,1.524829 2.89127,3.25832 4.26371,5.136628 3.58493,-0.05082 7.27583,0.160077 10.92194,0.476304 -0.74746,-1.335092 -1.63848,-2.666823 -2.87128,-3.880578 -3.73057,-0.769647 -8.19016,-1.300117 -12.31437,-1.732354 z"
         id="path1"
         sodipodi:nodetypes="ccccc" /><path
         style="font-variation-settings:'wght' 700;fill:#1a2e4a;fill-opacity:1;stroke-width:0.2;stroke-linecap:round;stroke-linejoin:round"
         d="m 203.56778,92.602291 -3.51394,0.01905 c 1.67733,2.037467 2.75823,5.434936 5.66264,5.287636 -0.22286,-2.085161 -0.88602,-3.914741 -2.1487,-5.306686 z"
         id="path2"
         sodipodi:nodetypes="cccc" /><path
         style="font-variation-settings:'wght' 700;fill:none;stroke:#1a2e4a;stroke-width:0.5;stroke-linecap:round;stroke-linejoin:round;stroke-dasharray:none;stroke-opacity:1"
         d="m 203.0006,91.89595 -4.14751,-0.06505 c -7.88712,-1.218191 -19.00531,-3.15178 -27.10184,-3.668584 -43.0152,-2.74567 -71.21598,-2.664261 -114.629315,-3.623385"
         id="path3"
         sodipodi:nodetypes="ccsc" /><path
         style="font-variation-settings:'wght' 700;fill:none;stroke:#1a2e4a;stroke-width:0.5;stroke-linecap:round;stroke-linejoin:round;stroke-dasharray:none;stroke-opacity:1"
         d="m 119.21996,102.10206 c 0,0 1.1501,-15.549258 -0.92007,-19.735599"
         id="path4" /><path
         style="font-variation-settings:'wght' 700;fill:none;stroke:#1a2e4a;stroke-width:0.499999;stroke-linecap:round;stroke-linejoin:round;stroke-dasharray:none;stroke-opacity:1"
         d="m 158.0931,87.380869 c 0,0 0.19564,16.648601 -1.23566,18.079901"
         id="path5" /><path
         style="font-variation-settings:'wght' 700;fill:none;stroke:#1a2e4a;stroke-width:0.499999;stroke-linecap:round;stroke-linejoin:round;stroke-dasharray:none;stroke-opacity:1"
         d="m 79.88679,82.274455 c 1.087728,4.11467 4.296019,7.511033 6.897096,11.068153 2.675713,3.659188 4.762425,7.472422 7.134036,11.243652"
         id="path6"
         sodipodi:nodetypes="csc" /><path
         style="font-variation-settings:'wght' 700;fill:none;stroke:#1a2e4a;stroke-width:0.499999;stroke-linecap:round;stroke-linejoin:round;stroke-dasharray:none;stroke-opacity:1"
         d="M 65.579635,94.373433 44.346805,92.48401"
         id="path7"
         sodipodi:nodetypes="cc" /><path
         style="font-variation-settings:'wght' 700;fill:none;stroke:#1a2e4a;stroke-width:0.499999;stroke-linecap:round;stroke-linejoin:round;stroke-dasharray:none;stroke-opacity:1"
         d="m 201.56662,90.693134 c -2.13972,-0.821646 -3.97066,-1.787767 -5.86133,-2.336099 -10.36429,-3.005849 -16.51122,-3.794281 -23.48816,-4.640854 -2.30426,-0.279596 -4.78401,-0.335426 -7.31548,-0.797674"
         id="path8"
         sodipodi:nodetypes="cssc" /><path
         style="font-variation-settings:'wght' 700;fill:#1a2e4a;fill-opacity:1;stroke:none;stroke-width:0.499999;stroke-linecap:round;stroke-linejoin:round;stroke-dasharray:none;stroke-opacity:1"
         d="m 154.94185,104.44825 c -2.13592,-0.64622 -4.4523,-1.17213 -7.10757,-1.47212 l -54.100371,-2.66822 3.404275,2.85223 z"
         id="path9"
         sodipodi:nodetypes="ccccc" /><ellipse
         style="font-variation-settings:'wght' 700;fill:#1a2e4a;fill-opacity:1;stroke:none;stroke-width:0.429621;stroke-linecap:round;stroke-linejoin:round;stroke-dasharray:none;stroke-opacity:1"
         id="path10"
         cx="76.39563"
         cy="102.80961"
         rx="7.660706"
         ry="7.1077037" /><ellipse
         style="font-variation-settings:'wght' 700;fill:#1a2e4a;fill-opacity:1;stroke:none;stroke-width:0.429621;stroke-linecap:round;stroke-linejoin:round;stroke-dasharray:none;stroke-opacity:1"
         id="ellipse10"
         cx="173.55548"
         cy="102.80961"
         rx="7.660706"
         ry="7.1077037" /><rect
         style="font-variation-settings:'wght' 700;fill:#1a2e4a;fill-opacity:1;stroke:none;stroke-width:0.45855;stroke-linecap:round;stroke-linejoin:round;stroke-dasharray:none;stroke-opacity:1"
         id="rect10"
         width="7.7976298"
         height="1.7411648"
         x="87.410347"
         y="85.840393"
         ry="0.8705824"
         transform="rotate(0.94180987)" /><rect
         style="font-variation-settings:'wght' 700;fill:#1a2e4a;fill-opacity:1;stroke:none;stroke-width:0.45855;stroke-linecap:round;stroke-linejoin:round;stroke-dasharray:none;stroke-opacity:1"
         id="rect11"
         width="7.7976298"
         height="1.7411648"
         x="122.54467"
         y="86.118736"
         ry="0.8705824"
         transform="rotate(0.94180987)" /><path
         style="font-variation-settings:'wght' 700;fill:#1a2e4a;fill-opacity:1;stroke:none;stroke-width:0.499999;stroke-linecap:round;stroke-linejoin:round;stroke-dasharray:none;stroke-opacity:1"
         d="m 69.259931,69.347411 8.372676,-0.460039 0.782063,-1.104088 c 15.128789,-0.194563 30.26711,-0.411361 45.03763,0.230019 l 0.87408,0.966078 9.38475,0.966078 c -1.98353,-1.643863 -4.5767,-2.902688 -8.87871,-3.08225 C 108.41318,65.418708 91.543412,66.00158 74.642365,66.7252 c -2.715714,0.50036 -4.175069,1.407313 -5.382434,2.622211 z"
         id="path11"
         sodipodi:nodetypes="ccccccccc" /><path
         style="font-variation-settings:'wght' 700;fill:#1a2e4a;fill-opacity:1;stroke:none;stroke-width:0.499999;stroke-linecap:round;stroke-linejoin:round;stroke-dasharray:none;stroke-opacity:1"
         d="m 140.61169,71.049547 -2.5302,0.460039 c 3.76434,1.635642 4.86847,1.547069 21.25371,11.362918 l 7.22259,0.483036 C 154.73173,76.039372 144.56901,71.786616 140.61169,71.049547 Z"
         id="path12"
         sodipodi:nodetypes="ccccc" /><path
         id="path13"
         style="font-variation-settings:'wght' 700;opacity:1;fill:#1a2e4a;fill-opacity:1;stroke:none;stroke-width:0.499999;stroke-linecap:round;stroke-linejoin:round;stroke-dasharray:none;stroke-opacity:1"
         d="m 193.03019,100.80888 -2.76469,4.06642 c 4.82521,0.41259 9.65039,0.85375 14.4756,0.84595 0.45995,-1.21419 0.65503,-2.50052 0.78032,-3.80597 h -3.74086 l -0.87798,-0.74828 z m 0.601,1.10898 5.98051,0.22996 -1.17357,1.97817 -6.11849,-0.36793 z" /><path
         id="path14"
         style="font-variation-settings:'wght' 700;opacity:1;fill:#1a2e4a;fill-opacity:1;stroke:none;stroke-width:0.499999;stroke-linecap:round;stroke-linejoin:round;stroke-dasharray:none;stroke-opacity:1"
         d="m 105.51719,69.387547 c -10.130725,-0.05371 -21.084676,0.519915 -32.061609,1.711007 -3.778286,0.409977 -11.21598,6.02824 -13.045715,8.017598 -0.591463,0.643062 0.66648,1.647743 1.716174,2.106331 l 95.0836,3.187919 c -2.8744,-2.664158 -13.00155,-10.98385 -24.56956,-12.969234 -7.68454,-1.318874 -16.99217,-1.99991 -27.12289,-2.053621 z m 8.88938,1.559595 3.57807,0.03256 2.96003,10.962121 -4.9444,-0.03256 z m -22.380546,0.292488 0.943612,9.856763 -0.976168,0.06459 -0.877983,-9.888802 z m -4.5868,0.06511 -3.935677,9.531202 -2.765206,-0.09767 4.424019,-9.238196 z m 57.941166,7.82743 c 0.73914,-0.01394 1.49867,0.07976 2.26963,0.267167 1.34783,0.199485 2.34892,0.976972 3.31245,1.816943 l -0.5519,1.334286 -1.31103,-0.02325 -0.25322,-0.413928 -7.31479,-0.22996 c -0.0105,-0.611372 -0.0802,-1.238806 0.36845,-1.724959 1.07401,-0.681283 2.24849,-1.003057 3.48041,-1.026294 z" /><path
         style="font-variation-settings:'wght' 700;opacity:1;fill:#1a2e4a;fill-opacity:1;stroke:none;stroke-width:0.499999;stroke-linecap:round;stroke-linejoin:round;stroke-dasharray:none;stroke-opacity:1"
         d="m 146.96846,83.958745 -3.51319,2.000565 4.86317,0.146383 c 1.3735,-0.593838 1.93607,-1.349863 2.69995,-2.065626 z"
         id="path15"
         sodipodi:nodetypes="ccccc" /><path
         style="font-variation-settings:'wght' 700;opacity:1;fill:none;fill-opacity:1;stroke:#1a2e4a;stroke-width:0.5;stroke-linecap:round;stroke-linejoin:round;stroke-dasharray:none;stroke-opacity:1"
         d="m 147.26122,73.451703 c -4.17681,-1.686066 -8.35397,-3.241146 -13.04434,-3.64331"
         id="path16"
         sodipodi:nodetypes="cc" /><path
         id="path17"
         style="font-variation-settings:'wght' 700;opacity:1;fill:#1a2e4a;fill-opacity:1;stroke:none;stroke-width:0.499999;stroke-linecap:round;stroke-linejoin:round;stroke-dasharray:none;stroke-opacity:1"
         d="m 76.636783,91.722618 c -6.82345,-0.144848 -12.216676,5.748795 -12.390975,9.671762 l -37.37653,0.16278 -1.593701,2.04949 38.677742,1.30121 c 0.03371,0.96465 -0.126281,1.99351 0.390157,2.79724 l 2.211751,0.0651 c 0.661947,1.35042 1.485777,2.27059 2.407605,2.92799 -19.871492,0.17963 -34.526671,0.41621 -35.568383,0.8472 2.978969,0.0197 5.99151,0.21115 8.952633,0.24828 11.881943,0.14898 23.676701,0.40567 35.837674,0.50901 39.962884,0.33958 80.884724,0.38479 119.419664,-0.29477 2.31866,-0.0409 4.49322,-0.48874 6.80244,-0.58055 -7.14178,-0.80363 -15.13603,-0.81017 -22.79458,-1.1524 l 1.39888,-1.5937 c 7.84724,-0.13324 18.13947,0.34526 22.9278,-2.04174 l -19.47943,-0.49557 c -0.0653,-0.24968 -0.0907,-2.22646 -0.43201,-4.19975 -0.48797,-2.821395 -2.15284,-5.876229 -4.04007,-7.244515 -7.60454,-5.51347 -21.35607,-3.079459 -21.35683,11.444265 l -71.361533,-1.06815 c -0.03689,-4.01291 -1.07874,-6.519126 -2.796729,-8.660456 -3.336802,-4.159045 -6.734007,-4.626896 -9.835575,-4.692736 z M 76.42801,94.40049 c 4.94983,-0.03647 8.962494,3.655514 8.962244,8.24601 -1.49e-4,4.59023 -4.012696,8.34064 -8.962244,8.37675 -4.949408,0.0362 -8.961666,-3.65539 -8.961727,-8.24549 -1.62e-4,-4.590251 4.012161,-8.340901 8.961727,-8.37727 z m 97.25194,0 c 4.94963,-0.03621 8.96198,3.655701 8.96173,8.24601 -1.5e-4,4.59005 -4.01238,8.34038 -8.96173,8.37675 -4.94941,0.0362 -8.96167,-3.65539 -8.96173,-8.24549 -1.6e-4,-4.590252 4.01216,-8.340902 8.96173,-8.37727 z m -87.260819,13.54388 77.516199,0.36793 c 0.42237,0.68209 0.82345,1.38617 1.61023,1.88619 l -81.196587,0.092 c 0.975589,-0.73447 1.613959,-1.52507 2.070158,-2.34611 z"
         sodipodi:nodetypes="sccccccccssscccccssccsscccccccccccccccc" /><path
         style="font-variation-settings:'wght' 700;opacity:1;fill:#1a2e4a;fill-opacity:1;stroke:none;stroke-width:0.499999;stroke-linecap:round;stroke-linejoin:round;stroke-dasharray:none;stroke-opacity:1"
         d="m 70.203006,67.576267 c -0.615305,0.306205 -1.212898,0.634551 -1.587127,1.242102 l -18.700511,-0.253021 0.483039,-0.805066 z"
         id="path18"
         sodipodi:nodetypes="ccccc" /><path
         style="font-variation-settings:'wght' 700;opacity:1;fill:#1a2e4a;fill-opacity:1;stroke:none;stroke-width:0.499999;stroke-linecap:round;stroke-linejoin:round;stroke-dasharray:none;stroke-opacity:1"
         d="M 63.562721,71.044517 C 58.445483,74.415023 53.447348,77.856991 48.761782,81.4865 l -2.895129,-0.13012 c 0.983866,-0.870317 1.957792,-1.750574 3.025245,-2.537304 l -17.858716,-0.71565 19.420136,-0.455414 c 1.858418,-1.596322 3.823626,-2.979062 5.855317,-4.228838 l -39.913747,-0.975887 0.292766,-0.390355 12.946758,-0.03253 0.845768,-0.910825 z"
         id="path19"
         sodipodi:nodetypes="cccccccccccc" /><path
         style="font-variation-settings:'wght' 700;opacity:1;fill:#1a2e4a;fill-opacity:1;stroke:none;stroke-width:0.499999;stroke-linecap:round;stroke-linejoin:round;stroke-dasharray:none;stroke-opacity:1"
         d="m 43.491996,86.300871 10.702218,0.195178 -2.504773,3.708365 h -8.034798 c 0.0238,0.839643 0.03402,1.679285 0.415668,2.518928 l 8.399839,0.278615 5.660138,-7.514325 -0.943356,-1.203592 -13.519053,-0.102695 c -0.15223,0.345772 -0.15753,1.403503 -0.175883,2.119526 z"
         id="path20"
         sodipodi:nodetypes="cccccccccc" /><path
         style="font-variation-settings:'wght' 700;opacity:1;fill:#1a2e4a;fill-opacity:1;stroke:none;stroke-width:0.486519;stroke-linecap:round;stroke-linejoin:round;stroke-dasharray:none;stroke-opacity:1"
         d="m 43.617962,87.292807 7.056466,0.08684 -0.943074,2.025388 -5.971942,-0.06821 z"
         id="path21"
         sodipodi:nodetypes="ccccc" /><path
         style="font-variation-settings:'wght' 700;opacity:1;fill:none;fill-opacity:1;stroke:#1a2e4a;stroke-width:0.499999;stroke-linecap:round;stroke-linejoin:round;stroke-dasharray:none;stroke-opacity:1"
         d="m 48.868896,81.049802 c -1.139209,0.961655 -2.142765,2.213109 -3.067302,3.266766"
         id="path28"
         sodipodi:nodetypes="cc" /><path
         style="font-variation-settings:'wght' 700;opacity:1;fill:#f5c518;fill-opacity:1;stroke:#ffffff;stroke-width:0.503799;stroke-linecap:round;stroke-linejoin:round;stroke-dasharray:none;stroke-opacity:1"
         d="m 60.961824,101.07291 -0.310511,4.24509 3.045945,-0.29549 c 0.02204,-1.18205 0.178867,-2.66325 0.33156,-3.97377 z"
         id="path30"
         sodipodi:nodetypes="ccccc"
         inkscape:export-filename="C:\Users\bdnone\path30.png"
         inkscape:export-xdpi="96"
         inkscape:export-ydpi="96" /></g><g
       id="g28"
       transform="translate(12.491344,23.941742)"><path
         style="font-variation-settings:'wght' 700;opacity:1;fill:#f5c518;fill-opacity:1;stroke:none;stroke-width:0.499999;stroke-linecap:round;stroke-linejoin:round;stroke-dasharray:none;stroke-opacity:1"
         d="M 32.139186,57.837522 30.642827,59.529059 2.9601882,58.845939 3.5457198,58.130288 Z"
         id="path22" /><path
         style="font-variation-settings:'wght' 700;opacity:1;fill:#f5c518;fill-opacity:1;stroke:none;stroke-width:0.497883;stroke-linecap:round;stroke-linejoin:round;stroke-dasharray:none;stroke-opacity:1"
         d="m 29.538434,61.24049 c -0.05185,0.442749 -0.243126,1.931743 -0.166562,3.528867 l -40.639901,-1.298603 0.501767,-0.690058 z"
         id="path23"
         sodipodi:nodetypes="ccccc" /><path
         style="font-variation-settings:'wght' 700;opacity:1;fill:#f5c518;fill-opacity:1;stroke:none;stroke-width:0.49953;stroke-linecap:round;stroke-linejoin:round;stroke-dasharray:none;stroke-opacity:1"
         d="m 29.152615,66.256854 c 0.0099,-0.03675 -0.111354,0.608186 0.188229,2.13342 l -18.52997,-0.534791 1.239771,-1.702139 z"
         id="path24"
         sodipodi:nodetypes="ccccc" /><path
         style="font-variation-settings:'wght' 700;opacity:1;fill:#f5c518;fill-opacity:1;stroke:none;stroke-width:0.499999;stroke-linecap:round;stroke-linejoin:round;stroke-dasharray:none;stroke-opacity:1"
         d="m 31.589889,70.410721 0.460037,1.886152 -34.6868019,0.046 1.84014868,-2.116169 z"
         id="path25"
         sodipodi:nodetypes="ccccc" /><path
         style="font-variation-settings:'wght' 700;opacity:1;fill:#f5c518;fill-opacity:1;stroke:none;stroke-width:0.499999;stroke-linecap:round;stroke-linejoin:round;stroke-dasharray:none;stroke-opacity:1"
         d="m 50.90873,75.501062 c -0.08317,0.191392 -0.165762,0.385624 -0.227706,0.68312 l -21.111673,0.195178 0.03253,-1.659006 z"
         id="path26"
         sodipodi:nodetypes="ccccc" /><path
         style="font-variation-settings:'wght' 700;opacity:1;fill:#f5c518;fill-opacity:1;stroke:none;stroke-width:0.499999;stroke-linecap:round;stroke-linejoin:round;stroke-dasharray:none;stroke-opacity:1"
         d="m 50.681024,82.10456 c -0.03282,0.553002 0.04511,1.106004 0.260238,1.659006 L 35.229494,83.210563 33.895782,81.97444 Z"
         id="path27"
         sodipodi:nodetypes="ccccc" /></g></g></svg>
