<?xml version="1.0" encoding="UTF-8" standalone="no"?>
<!-- Created with Inkscape (http://www.inkscape.org/) -->

<svg
   width="210mm"
   height="297mm"
   viewBox="0 0 210 297"
   version="1.1"
   id="svg1"
   xml:space="preserve"
   inkscape:version="1.4.2 (f4327f4, 2025-05-13)"
   sodipodi:docname="logo-grouped.svg"
   xmlns:inkscape="http://www.inkscape.org/namespaces/inkscape"
   xmlns:sodipodi="http://sodipodi.sourceforge.net/DTD/sodipodi-0.dtd"
   xmlns="http://www.w3.org/2000/svg"
   xmlns:svg="http://www.w3.org/2000/svg"><sodipodi:namedview
     id="namedview1"
     pagecolor="#ffffff"
     bordercolor="#000000"
     borderopacity="0.25"
     inkscape:showpageshadow="2"
     inkscape:pageopacity="0.0"
     inkscape:pagecheckerboard="0"
     inkscape:deskcolor="#d1d1d1"
     inkscape:document-units="mm"
     showguides="false"
     inkscape:zoom="0.35945918"
     inkscape:cx="15.300764"
     inkscape:cy="886.05332"
     inkscape:window-width="1920"
     inkscape:window-height="1009"
     inkscape:window-x="1912"
     inkscape:window-y="-8"
     inkscape:window-maximized="1"
     inkscape:current-layer="g29"
     showgrid="false" /><defs
     id="defs1" /><g
     inkscape:label="Layer 1"
     inkscape:groupmode="layer"
     id="layer1"><g
       id="g29"><g
         id="g1"
         transform="translate(0,-5.2916667)"
         style="fill:#1a2e4a;fill-opacity:1"
         inkscape:export-filename="g2.png"
         inkscape:export-xdpi="96"
         inkscape:export-ydpi="96"><path
           style="font-variation-settings:'wght' 700;fill:#1a2e4a;fill-opacity:1;stroke-width:0.568294;stroke-linecap:round;stroke-linejoin:round"
           d="m 338.93595,163.96064 c 3.89975,4.33276 8.21549,9.25844 12.11524,14.59559 10.18648,-0.1444 20.67409,0.45486 31.03442,1.35342 -2.1239,-3.79364 -4.65571,-7.57772 -8.15869,-11.02658 -10.6003,-2.18692 -23.2721,-3.69425 -34.99097,-4.92243 z"
           id="path1"
           sodipodi:nodetypes="ccccc" /><path
           style="font-variation-settings:'wght' 700;fill:#1a2e4a;fill-opacity:1;stroke-width:0.568294;stroke-linecap:round;stroke-linejoin:round"
           d="m 389.22097,171.43209 -9.98475,0.0542 c 4.76607,5.78941 7.83741,15.44323 16.09023,15.02469 -0.63323,-5.92493 -2.5176,-11.12365 -6.10548,-15.07882 z"
           id="path2"
           sodipodi:nodetypes="cccc" /><path
           style="font-variation-settings:'wght' 700;fill:#1a2e4a;fill-opacity:1;stroke:none;stroke-width:1.42073;stroke-linecap:round;stroke-linejoin:round;stroke-dasharray:none;stroke-opacity:1"
           d="m 251.05161,205.09209 c -6.06916,-1.83622 -12.6511,-3.33057 -20.19599,-4.18299 l -153.72486,-7.58168 9.673162,8.10453 z"
           id="path9"
           sodipodi:nodetypes="ccccc" /><ellipse
           style="font-variation-settings:'wght' 700;fill:#1a2e4a;fill-opacity:1;stroke:none;stroke-width:1.13319;stroke-linecap:round;stroke-linejoin:round;stroke-dasharray:none;stroke-opacity:1"
           id="ellipse10"
           cx="303.94174"
           cy="200.43591"
           rx="20.206287"
           ry="18.74766" /><rect
           style="font-variation-settings:'wght' 700;fill:#1a2e4a;fill-opacity:1;stroke:none;stroke-width:1.30296;stroke-linecap:round;stroke-linejoin:round;stroke-dasharray:none;stroke-opacity:1"
           id="rect10"
           width="22.156771"
           height="4.9474764"
           x="57.680889"
           y="155.34077"
           ry="2.4737382"
           transform="rotate(0.94180987)" /><rect
           style="font-variation-settings:'wght' 700;fill:#1a2e4a;fill-opacity:1;stroke:none;stroke-width:1.30296;stroke-linecap:round;stroke-linejoin:round;stroke-dasharray:none;stroke-opacity:1"
           id="rect11"
           width="22.156771"
           height="4.9474764"
           x="157.51421"
           y="156.13167"
           ry="2.4737382"
           transform="rotate(0.94180987)" /><path
           style="font-variation-settings:'wght' 700;fill:#1a2e4a;fill-opacity:1;stroke:none;stroke-width:1.42073;stroke-linecap:round;stroke-linejoin:round;stroke-dasharray:none;stroke-opacity:1"
           d="m 7.5885561,105.35393 23.7907479,-1.3072 2.222218,-3.13723 c 42.988072,-0.55285 86.003238,-1.168877 127.973298,0.65359 l 2.48368,2.74508 26.66653,2.7451 c -5.63614,-4.67101 -13.00458,-8.247917 -25.22863,-8.758137 -46.65486,-4.104517 -94.589882,-2.44831 -142.613786,-0.39215 -7.716642,1.42176 -11.863362,3.998837 -15.2940579,7.450947 z"
           id="path11"
           sodipodi:nodetypes="ccccccccc" /><path
           style="font-variation-settings:'wght' 700;fill:#1a2e4a;fill-opacity:1;stroke:none;stroke-width:1.42073;stroke-linecap:round;stroke-linejoin:round;stroke-dasharray:none;stroke-opacity:1"
           d="m 210.33281,110.19051 -7.18949,1.30718 c 10.69627,4.64764 13.83363,4.39597 60.39188,32.28746 l 20.52281,1.37253 c -33.60345,-20.78871 -62.48057,-32.87281 -73.7252,-34.96717 z"
           id="path12"
           sodipodi:nodetypes="ccccc" /><path
           id="path13"
           style="font-variation-settings:'wght' 700;opacity:1;fill:#1a2e4a;fill-opacity:1;stroke:none;stroke-width:1.42073;stroke-linecap:round;stroke-linejoin:round;stroke-dasharray:none;stroke-opacity:1"
           d="m 359.27869,194.75091 -7.85578,11.55463 c 13.71069,1.17236 27.42129,2.42592 41.13202,2.40375 1.30693,-3.4501 1.86124,-7.10516 2.21725,-10.81457 h -10.62954 l -2.49474,-2.12622 z m 1.7077,3.15114 16.99347,0.65342 -3.33466,5.62093 -17.38555,-1.04547 z" /><path
           id="path14"
           style="font-variation-settings:'wght' 700;opacity:1;fill:#1a2e4a;fill-opacity:1;stroke:none;stroke-width:1.42073;stroke-linecap:round;stroke-linejoin:round;stroke-dasharray:none;stroke-opacity:1"
           d="m 110.61266,105.46797 c -28.786205,-0.15261 -59.911579,1.47734 -91.102263,4.86179 -10.7359104,1.16494 -31.869925,17.12909 -37.069073,22.7818 -1.680626,1.82725 1.893785,4.68202 4.876454,5.98508 l 270.177702,9.05841 c -8.16754,-7.57014 -36.94358,-31.21035 -69.8138,-36.85177 -21.83544,-3.74754 -48.28284,-5.68269 -77.06902,-5.83531 z m 25.25895,4.43156 10.167,0.0925 8.41085,31.14859 -14.04939,-0.0925 z m -63.593759,0.83109 2.681246,28.00775 -2.773765,0.18352 -2.494762,-28.09878 z m -13.03328,0.185 -11.183133,27.08268 -7.857263,-0.27752 12.570739,-26.25011 z m 164.638389,22.24146 c 2.10025,-0.0396 4.25843,0.22664 6.44909,0.75915 3.82983,0.56682 6.6744,2.77604 9.41224,5.16279 l -1.5682,3.79135 -3.72526,-0.0661 -0.71952,-1.17617 -20.78479,-0.65343 c -0.0299,-1.73721 -0.22789,-3.52003 1.04693,-4.90143 3.05177,-1.93584 6.38903,-2.85016 9.88951,-2.91618 z" /><path
           style="font-variation-settings:'wght' 700;opacity:1;fill:#1a2e4a;fill-opacity:1;stroke:none;stroke-width:1.42073;stroke-linecap:round;stroke-linejoin:round;stroke-dasharray:none;stroke-opacity:1"
           d="m 228.39542,146.87167 -9.98264,5.68456 13.81857,0.41593 c 3.90276,-1.68736 5.5013,-3.8356 7.67184,-5.86941 z"
           id="path15"
           sodipodi:nodetypes="ccccc" /><path
           id="path17"
           style="font-variation-settings:'wght' 700;opacity:1;fill:#1a2e4a;fill-opacity:1;stroke:none;stroke-width:1.42073;stroke-linecap:round;stroke-linejoin:round;stroke-dasharray:none;stroke-opacity:1"
           d="M 28.549703,168.93253 C 9.1610367,168.52094 -6.1636764,185.26759 -6.6589434,196.4146 l -106.2044766,0.46254 -4.52846,5.82356 109.901833,3.69736 c 0.095794,2.74104 -0.3588279,5.66451 1.1086248,7.94828 l 6.28463718,0.18498 c 1.88090282,3.83719 4.22179222,6.45183 6.84114362,8.31982 -56.4643486,0.51041 -98.1066696,1.18265 -101.0666796,2.40729 8.464677,0.056 17.024737,0.59999 25.43869,0.7055 33.762252,0.42332 67.2767569,1.15269 101.831863,1.44633 113.553538,0.96491 229.831938,1.09337 339.327978,-0.83759 6.58843,-0.11627 12.76739,-1.38873 19.329,-1.64961 -20.29319,-2.2835 -43.00865,-2.30208 -64.77024,-3.27452 l 3.97488,-4.52846 c 22.29776,-0.37859 51.54287,0.98104 65.14878,-5.80155 l -55.35033,-1.40815 c -0.18555,-0.70946 -0.2577,-6.32644 -1.22752,-11.93349 -1.38659,-8.01692 -6.11726,-16.69715 -11.47977,-20.5851 -21.60812,-15.6664 -60.68275,-8.75021 -60.6849,32.51859 L 64.444076,206.87526 C 64.339299,195.47268 61.37887,188.35132 56.497245,182.26679 47.015799,170.44896 37.362734,169.11958 28.549703,168.9325 Z m -0.59322,7.6091 c 14.064819,-0.10358 25.4667,10.38706 25.465988,23.43084 -4.27e-4,13.04301 -11.401978,23.69971 -25.465988,23.80232 C 13.892852,223.87759 2.4921313,213.3881 2.4919467,200.34544 2.491507,187.30235 13.892403,176.64497 27.956483,176.54163 Z m 276.338967,0 c 14.06425,-0.10293 25.46525,10.38758 25.46453,23.43084 -4.2e-4,13.0425 -11.40107,23.69898 -25.46453,23.80232 -14.06362,0.1028 -25.46436,-10.38669 -25.46454,-23.42935 -4.3e-4,-13.04309 11.40046,-23.70047 25.46454,-23.80381 z m -247.949453,38.4846 220.260363,1.04547 c 1.20015,1.93814 2.33981,3.93876 4.57542,5.35955 l -230.718081,0.26142 c 2.772116,-2.08698 4.586015,-4.33345 5.882298,-6.66641 z"
           sodipodi:nodetypes="sccccccccssscccccssccsscccccccccccccccc" /><path
           style="font-variation-settings:'wght' 700;opacity:1;fill:#1a2e4a;fill-opacity:1;stroke:none;stroke-width:1.42073;stroke-linecap:round;stroke-linejoin:round;stroke-dasharray:none;stroke-opacity:1"
           d="m 10.268285,100.32126 c -1.748368,0.87008 -3.4464229,1.80306 -4.5097776,3.52941 l -53.1370414,-0.71896 1.372547,-2.28757 z"
           id="path18"
           sodipodi:nodetypes="ccccc" /><path
           style="font-variation-settings:'wght' 700;opacity:1;fill:#1a2e4a;fill-opacity:1;stroke:none;stroke-width:1.42073;stroke-linecap:round;stroke-linejoin:round;stroke-dasharray:none;stroke-opacity:1"
           d="m -8.5999249,110.17621 c -14.5405021,9.57722 -28.7425731,19.35748 -42.0565001,29.67064 l -8.226432,-0.36973 c 2.79563,-2.47299 5.56302,-4.97422 8.59616,-7.20969 l -50.745103,-2.03351 55.18184,-1.29403 c 5.280649,-4.53592 10.864734,-8.46495 16.637739,-12.01614 l -113.413929,-2.77296 0.83189,-1.10919 36.78789,-0.0925 2.40323,-2.58809 z"
           id="path19"
           sodipodi:nodetypes="cccccccccccc" /><path
           style="font-variation-settings:'wght' 700;opacity:1;fill:#1a2e4a;fill-opacity:1;stroke:none;stroke-width:1.42073;stroke-linecap:round;stroke-linejoin:round;stroke-dasharray:none;stroke-opacity:1"
           d="m -65.630386,153.52677 30.410082,0.55459 -7.117249,10.53723 h -22.830676 c 0.06762,2.38582 0.09666,4.77164 1.181111,7.15746 l 23.867936,0.79168 16.083136,-21.35177 -2.680525,-3.41997 -38.414048,-0.2918 c -0.432558,0.98249 -0.447618,3.98801 -0.499767,6.02258 z"
           id="path20"
           sodipodi:nodetypes="cccccccccc" /><path
           style="font-variation-settings:'wght' 700;opacity:1;fill:#1a2e4a;fill-opacity:1;stroke:none;stroke-width:1.38243;stroke-linecap:round;stroke-linejoin:round;stroke-dasharray:none;stroke-opacity:1"
           d="m -65.272458,156.34532 20.050774,0.24676 -2.679729,5.75509 -16.969117,-0.19382 z"
           id="path21"
           sodipodi:nodetypes="ccccc" /><ellipse
           style="font-variation-settings:'wght' 700;fill:#1a2e4a;fill-opacity:1;stroke:none;stroke-width:1.13319;stroke-linecap:round;stroke-linejoin:round;stroke-dasharray:none;stroke-opacity:1"
           id="ellipse1"
           cx="28.091242"
           cy="200.43591"
           rx="20.206287"
           ry="18.74766" /></g><g
         id="g2"
         style="stroke:#1a2e4a;stroke-opacity:1"
         inkscape:export-filename="g2b.png"
         inkscape:export-xdpi="96"
         inkscape:export-ydpi="96"><path
           style="font-variation-settings:'wght' 700;opacity:1;fill:none;fill-opacity:1;stroke:#1a2e4a;stroke-width:1.42073;stroke-linecap:round;stroke-linejoin:round;stroke-dasharray:none;stroke-opacity:1"
           d="m -60.828768,166.43087 c 0.519186,4.72869 2.4143,11.97994 5.45626,14.22197"
           id="path29"
           sodipodi:nodetypes="cc"
           inkscape:export-filename="path29.png"
           inkscape:export-xdpi="96"
           inkscape:export-ydpi="96" /><path
           style="font-variation-settings:'wght' 700;fill:none;stroke:#1a2e4a;stroke-width:1.42073;stroke-linecap:round;stroke-linejoin:round;stroke-dasharray:none;stroke-opacity:1"
           d="m 387.60934,164.13337 -11.78504,-0.18483 c -22.41107,-3.46147 -54.00312,-8.95571 -77.00921,-10.4242 -122.22662,-7.80175 -202.358433,-7.57043 -325.716346,-10.29575"
           id="path3"
           sodipodi:nodetypes="ccsc" /><path
           style="font-variation-settings:'wght' 700;fill:none;stroke:#1a2e4a;stroke-width:1.42073;stroke-linecap:round;stroke-linejoin:round;stroke-dasharray:none;stroke-opacity:1"
           d="m 149.54873,193.13378 c 0,0 3.26799,-44.18283 -2.61435,-56.07821"
           id="path4" /><path
           style="font-variation-settings:'wght' 700;fill:none;stroke:#1a2e4a;stroke-width:1.42073;stroke-linecap:round;stroke-linejoin:round;stroke-dasharray:none;stroke-opacity:1"
           d="m 260.0058,151.30389 c 0,0 0.55592,47.30657 -3.51109,51.37358"
           id="path5" /><path
           style="font-variation-settings:'wght' 700;fill:none;stroke:#1a2e4a;stroke-width:1.42073;stroke-linecap:round;stroke-linejoin:round;stroke-dasharray:none;stroke-opacity:1"
           d="m 37.784508,136.79413 c 3.090765,11.69173 12.207038,21.34242 19.597935,31.44988 7.60297,10.39749 13.532306,21.23271 20.271183,31.94856"
           id="path6"
           sodipodi:nodetypes="csc" /><path
           style="font-variation-settings:'wght' 700;fill:none;stroke:#1a2e4a;stroke-width:1.42073;stroke-linecap:round;stroke-linejoin:round;stroke-dasharray:none;stroke-opacity:1"
           d="M -2.8689098,171.17308 -63.201468,165.80433"
           id="path7"
           sodipodi:nodetypes="cc" /><path
           style="font-variation-settings:'wght' 700;fill:none;stroke:#1a2e4a;stroke-width:1.42073;stroke-linecap:round;stroke-linejoin:round;stroke-dasharray:none;stroke-opacity:1"
           d="m 383.53473,160.7156 c -6.07994,-2.33468 -11.28253,-5.0799 -16.65483,-6.63796 -29.44988,-8.54105 -46.91621,-10.78136 -66.74102,-13.18688 -6.54749,-0.79446 -13.59364,-0.95311 -20.78675,-2.26657"
           id="path8"
           sodipodi:nodetypes="cssc" /><path
           style="font-variation-settings:'wght' 700;opacity:1;fill:none;fill-opacity:1;stroke:#1a2e4a;stroke-width:1.42073;stroke-linecap:round;stroke-linejoin:round;stroke-dasharray:none;stroke-opacity:1"
           d="m 229.22729,111.7245 c -11.86831,-4.79092 -23.7376,-9.20964 -37.06517,-10.35237"
           id="path16"
           sodipodi:nodetypes="cc" /><path
           style="font-variation-settings:'wght' 700;opacity:1;fill:none;fill-opacity:1;stroke:#1a2e4a;stroke-width:1.42073;stroke-linecap:round;stroke-linejoin:round;stroke-dasharray:none;stroke-opacity:1"
           d="m -50.352061,133.31431 c -3.237027,2.73253 -6.088612,6.28849 -8.715658,9.28243"
           id="path28"
           sodipodi:nodetypes="cc" /></g></g><g
       id="g28"
       transform="matrix(2.8414751,0,0,2.8414751,-153.71797,-28.956822)"><path
         style="font-variation-settings:'wght' 700;opacity:1;fill:#f5c518;fill-opacity:1;stroke:none;stroke-width:0.499999;stroke-linecap:round;stroke-linejoin:round;stroke-dasharray:none;stroke-opacity:1"
         d="M 32.139186,57.837522 30.642827,59.529059 2.9601882,58.845939 3.5457198,58.130288 Z"
         id="path22" /><path
         style="font-variation-settings:'wght' 700;opacity:1;fill:#f5c518;fill-opacity:1;stroke:none;stroke-width:0.497883;stroke-linecap:round;stroke-linejoin:round;stroke-dasharray:none;stroke-opacity:1"
         d="m 29.538434,61.24049 c -0.05185,0.442749 -0.243126,1.931743 -0.166562,3.528867 l -40.639901,-1.298603 0.501767,-0.690058 z"
         id="path23"
         sodipodi:nodetypes="ccccc" /><path
         style="font-variation-settings:'wght' 700;opacity:1;fill:#f5c518;fill-opacity:1;stroke:none;stroke-width:0.49953;stroke-linecap:round;stroke-linejoin:round;stroke-dasharray:none;stroke-opacity:1"
         d="m 29.152615,66.256854 c 0.0099,-0.03675 -0.111354,0.608186 0.188229,2.13342 l -18.52997,-0.534791 1.239771,-1.702139 z"
         id="path24"
         sodipodi:nodetypes="ccccc" /><path
         style="font-variation-settings:'wght' 700;opacity:1;fill:#f5c518;fill-opacity:1;stroke:none;stroke-width:0.499999;stroke-linecap:round;stroke-linejoin:round;stroke-dasharray:none;stroke-opacity:1"
         d="m 31.589889,70.410721 0.460037,1.886152 -34.6868019,0.046 1.84014868,-2.116169 z"
         id="path25"
         sodipodi:nodetypes="ccccc" /><path
         style="font-variation-settings:'wght' 700;opacity:1;fill:#f5c518;fill-opacity:1;stroke:none;stroke-width:0.499999;stroke-linecap:round;stroke-linejoin:round;stroke-dasharray:none;stroke-opacity:1"
         d="m 50.90873,75.501062 c -0.08317,0.191392 -0.165762,0.385624 -0.227706,0.68312 l -21.111673,0.195178 0.03253,-1.659006 z"
         id="path26"
         sodipodi:nodetypes="ccccc" /><path
         style="font-variation-settings:'wght' 700;opacity:1;fill:#f5c518;fill-opacity:1;stroke:none;stroke-width:0.499999;stroke-linecap:round;stroke-linejoin:round;stroke-dasharray:none;stroke-opacity:1"
         d="m 50.681024,82.10456 c -0.03282,0.553002 0.04511,1.106004 0.260238,1.659006 L 35.229494,83.210563 33.895782,81.97444 Z"
         id="path27"
         sodipodi:nodetypes="ccccc" /></g></g></svg>
